# xmcd
#
# Track frame offsets: 
#        150
#        14105
#        24114
#        31989
#        40579
#        47600
#        54635
#        66626
#        71272
#        77369
#        83408
#        93149
#        101776
#        115655
#        124407
#        134650
#        144544
#        172948
#        186903
#        196912
#        204787
#        213377
#        220398
#        227433
#        239424
#        244070
#        250167
#        256206
#        265947
#        274574
#        288453
#        297205
#        307448
#        317342
#
# Disc length: 4413 seconds
#
# Revision: 1
# Processed by: cddbd v1.5.2PL0 Copyright (c) Steve Scherf et al.
# Submitted via: ExactAudioCopy v1.1
#
DISCID=e8113b22
DTITLE=Music K-8 - Vol 21 No 5
DYEAR=1900
DGENRE=
TTITLE0=Sand Castles
TTITLE1=It's Our Time
TTITLE2=Taps Prologue
TTITLE3=Taps
TTITLE4=Bestest Mom 
TTITLE5=Move, Move, Move
TTITLE6=Whats You Favorite Tree?
TTITLE7=Rainy Day
TTITLE8=Quarter Note 
TTITLE9=My Hands
TTITLE10=Lazy Lackadaisical Day
TTITLE11=Groovy Zoovy
TTITLE12=Lets Go!
TTITLE13=Somebody Stole My Cow!
TTITLE14=Chester
TTITLE15=Roses and Thorns
TTITLE16=Get Kids Singing Old American Favorites preview
TTITLE17=Sand Castle  Instr
TTITLE18=It's Our Time  Instr
TTITLE19=Taps Prologue Instr
TTITLE20=Taps  Instr
TTITLE21=Bestest Mom  Instr
TTITLE22=Move, Move, Move Instr
TTITLE23=Whats your Favorite Tree? Instr
TTITLE24=Rainy Day Instr
TTITLE25=Quarter Note Instr
TTITLE26=My Hands Instr
TTITLE27=Lazy Lackadaisical Day Instr
TTITLE28=Groovy Zoovy Instr
TTITLE29=Lets Go! Instr
TTITLE30=Somebody Stole My Cow! Instr
TTITLE31=Chester  Instr
TTITLE32=Roses and Thorns Instr
TTITLE33=Sand Castles unison
EXTD=
EXTT0=
EXTT1=
EXTT2=
EXTT3=
EXTT4=
EXTT5=
EXTT6=
EXTT7=
EXTT8=
EXTT9=
EXTT10=
EXTT11=
EXTT12=
EXTT13=
EXTT14=
EXTT15=
EXTT16=
EXTT17=
EXTT18=
EXTT19=
EXTT20=
EXTT21=
EXTT22=
EXTT23=
EXTT24=
EXTT25=
EXTT26=
EXTT27=
EXTT28=
EXTT29=
EXTT30=
EXTT31=
EXTT32=
EXTT33=
PLAYORDER=
